Coordinates
version=1
nRows=14
nColumns=24
inDegrees=yes

Units are S.I. units (second, meters, Newtons, ...)
Angles are in degrees.

endheader
time	pelvis_tilt	pelvis_list	pelvis_rotation	pelvis_tx	pelvis_ty	pelvis_tz	hip_flexion_r	hip_adduction_r	hip_rotation_r	knee_angle_r	ankle_angle_r	subtalar_angle_r	mtp_angle_r	hip_flexion_l	hip_adduction_l	hip_rotation_l	knee_angle_l	ankle_angle_l	subtalar_angle_l	mtp_angle_l	lumbar_extension	lumbar_bending	lumbar_rotation
      0.86700000	      1.85481800	      2.04361006	     -3.38148397	     -0.11650211	      0.90166315	      0.33037557	    -19.67492647	      1.10231807	     -2.80065924	     -7.53847367	     17.91260775	      8.96608693	      5.79779665	     22.88363198	      1.63573397	    -10.16848689	    -12.66244861	      4.31114257	     -4.54623451	      3.03235497	    -12.10678251	     -2.73120002	      9.68431033
      0.87116667	      1.76195480	      2.07689295	     -3.50946164	     -0.11064393	      0.90018793	      0.33032241	    -19.73296881	      0.97181704	     -2.73342887	     -8.05948473	     18.13309226	      9.13805559	      6.13600867	     22.98383947	      1.70817051	     -9.85893993	    -12.42449632	      4.23728394	     -4.63118298	      3.06645233	    -11.96948140	     -2.84286930	      9.80017193
      0.87533333	      1.68204118	      2.13008293	     -3.62846797	     -0.10476656	      0.89875268	      0.33027503	    -19.79412799	      0.82568743	     -2.63225709	     -8.60615414	     18.35307007	      9.24066847	      6.37296190	     23.08851770	      1.79586493	     -9.58361719	    -12.34046573	      4.16062323	     -4.69447066	      3.09602839	    -11.85863710	     -2.99890364	      9.87269576
      0.87950000	      1.58580210	      2.17577543	     -3.74122372	     -0.09885584	      0.89734363	      0.33016588	    -19.78242092	      0.67339382	     -2.64865228	     -9.26541518	     18.51688129	      9.50839200	      6.75081310	     23.18663255	      1.89135339	     -9.23006917	    -12.31279219	      4.04756523	     -4.89462480	      3.15147807	    -11.69424723	     -3.09631706	      9.98771599
      0.88366667	      1.53691948	      2.28089820	     -3.83281790	     -0.09285977	      0.89604554	      0.33004521	    -19.83133880	      0.46377585	     -2.67470524	     -9.90649509	     18.58943622	      9.66252518	     10.05619150	     23.22222180	      2.05715125	     -8.90818542	    -12.36061664	      3.83349182	     -5.09914627	      3.72800364	    -11.58774218	     -3.31545597	      9.97340851
      0.88783333	      1.43438696	      2.31898218	     -3.93417538	     -0.08695576	      0.89469107	      0.32995244	    -19.76957769	      0.32982880	     -2.57704492	    -10.65747682	     18.75232652	      9.77992398	     10.11769784	     23.38563106	      2.12587139	     -8.65420518	    -12.66983521	      3.79826441	     -5.24158543	      3.74792000	    -11.44493163	     -3.42906780	     10.05318009
      0.89200000	      1.32942554	      2.40260925	     -4.02413124	     -0.08098864	      0.89339433	      0.32979417	    -19.65809589	      0.13405248	     -2.60822292	    -11.50480368	     18.87468164	     10.03069233	     10.22878662	     23.52150892	      2.26034682	     -8.36905065	    -12.99571300	      3.62279319	     -5.49145292	      3.77970639	    -11.27524329	     -3.59863691	     10.10099617
      0.89616667	      1.24426046	      2.49271828	     -4.09420634	     -0.07499904	      0.89217284	      0.32959239	    -19.54395644	     -0.06974687	     -2.66823425	    -12.40353245	     18.95606044	     10.30514103	     10.38498229	     23.63950354	      2.41339381	     -8.07824546	    -13.41301514	      3.44709276	     -5.79449838	      3.82329364	    -11.13212216	     -3.77195980	     10.11141416
      0.90033333	      1.19716154	      2.60971424	     -4.14074665	     -0.06894757	      0.89107856	      0.32931265	    -19.45510580	     -0.31030904	     -2.80529148	    -13.32628017	     18.87202144	     10.59151068	     13.08083169	     23.68821731	      2.62203591	     -7.73729223	    -13.83867155	      3.16353814	     -6.27827694	      4.59677754	    -11.02398963	     -3.96961459	     10.06619731
      0.90450000	      1.11196084	      2.69677843	     -4.19775511	     -0.06294094	      0.88996139	      0.32907534	    -19.27040458	     -0.51616188	     -2.84781535	    -14.36491608	     18.89804145	     10.83994164	     13.14956604	     23.83812398	      2.76326253	     -7.56222488	    -14.47356329	      3.05485499	     -6.48645066	      4.61718257	    -10.88455654	     -4.14580602	     10.05573655
      0.90866667	      1.03322697	      2.80811042	     -4.22907346	     -0.05690015	      0.88891957	      0.32875371	    -19.05555936	     -0.75688559	     -2.97720322	    -15.47694955	     18.83539977	     11.17687579	     13.27802289	     23.96541617	      2.95262708	     -7.34198763	    -15.12429938	      2.88011709	     -6.82830393	      4.64743326	    -10.73935163	     -4.33808414	     10.00222350
      0.91283333	      0.99428451	      2.92437002	     -4.23705644	     -0.05085321	      0.88800523	      0.32835315	    -18.84856192	     -1.01343790	     -3.16787674	    -16.65673740	     18.73284510	     11.57777994	     13.55132692	     24.03599558	      3.16894931	     -7.09129552	    -15.79049764	      2.66385885	     -7.23406444	      4.70328030	    -10.65797050	     -4.50996150	      9.93177648
      0.91700000	      0.92493515	      3.05222698	     -4.25858418	     -0.04476997	      0.88712284	      0.32800202	    -18.58151835	     -1.27992155	     -3.26224497	    -17.87609431	     18.51704510	     11.84776986	     13.77346794	     24.15177898	      3.37486071	     -6.94443778	    -16.54195977	      2.57779360	     -7.57800164	      4.74403994	    -10.51141304	     -4.74979789	      9.82639794
      0.92116667	      0.87404715	      3.17680892	     -4.24959635	     -0.03870692	      0.88632893	      0.32755933	    -18.28600667	     -1.55420145	     -3.43601213	    -19.18792800	     18.25904898	     12.21381164	     14.05314867	     24.24721250	      3.59444879	     -6.77617694	    -17.31886218	      2.47556554	     -7.93673358	      4.78900315	    -10.40648301	     -4.95047729	      9.70714876
